<svg width="12" height="12" viewBox="0 0 12 12" fill="none" xmlns="http://www.w3.org/2000/svg">
<path fill-rule="evenodd" clip-rule="evenodd" d="M11 1H3V9H11V1ZM3 0C2.44772 0 2 0.447716 2 1V9C2 9.55229 2.44772 10 3 10H11C11.5523 10 12 9.55228 12 9V1C12 0.447715 11.5523 0 11 0H3Z" fill="#CABBE2"/>
<path fill-rule="evenodd" clip-rule="evenodd" d="M9 3H1V11H9V3ZM1 2C0.447715 2 0 2.44772 0 3V11C0 11.5523 0.447716 12 1 12H9C9.55229 12 10 11.5523 10 11V3C10 2.44772 9.55228 2 9 2H1Z" fill="#CABBE2"/>
</svg>
