<svg width="12" height="12" viewBox="0 0 12 12" fill="none" xmlns="http://www.w3.org/2000/svg">
<path fill-rule="evenodd" clip-rule="evenodd" d="M11 1H1V11H11V1ZM1 0C0.337258 0 0 0.337259 0 1V11C0 11.6627 0.337258 12 1 12H11C11.6627 12 12 11.6627 12 11V1C12 0.337259 11.6627 0 11 0H1Z" fill="#CABBE2"/>
<path fill-rule="evenodd" clip-rule="evenodd" d="M11 1H1V11H11V1ZM1 0C0.337258 0 0 0.337259 0 1V11C0 11.6627 0.337258 12 1 12H11C11.6627 12 12 11.6627 12 11V1C12 0.337259 11.6627 0 11 0H1Z" fill="#CABBE2"/>
</svg>
